<mxfile host="app.diagrams.net" agent="Mozilla/5.0 (Windows NT 10.0; Win64; x64) AppleWebKit/537.36 (KHTML, like Gecko) Chrome/138.0.0.0 Safari/537.36" version="28.0.6">
  <diagram name="Page-1" id="S8pvaNQ1F1QNDRmntgMn">
    <mxGraphModel dx="1188" dy="619" grid="1" gridSize="10" guides="1" tooltips="1" connect="1" arrows="1" fold="1" page="1" pageScale="1" pageWidth="827" pageHeight="1169" math="0" shadow="0">
      <root>
        <mxCell id="0" />
        <mxCell id="1" parent="0" />
        <mxCell id="l0e_5BZt8I1RR8NedoNN-1" value="" style="whiteSpace=wrap;html=1;aspect=fixed;" vertex="1" parent="1">
          <mxGeometry x="179" y="150" width="470" height="470" as="geometry" />
        </mxCell>
        <mxCell id="l0e_5BZt8I1RR8NedoNN-2" value="" style="rounded=0;whiteSpace=wrap;html=1;" vertex="1" parent="1">
          <mxGeometry x="229" y="190" width="370" height="60" as="geometry" />
        </mxCell>
        <mxCell id="l0e_5BZt8I1RR8NedoNN-3" value="" style="rounded=0;whiteSpace=wrap;html=1;" vertex="1" parent="1">
          <mxGeometry x="229" y="520" width="370" height="60" as="geometry" />
        </mxCell>
        <mxCell id="l0e_5BZt8I1RR8NedoNN-4" value="" style="rounded=0;whiteSpace=wrap;html=1;" vertex="1" parent="1">
          <mxGeometry x="229" y="280" width="91" height="210" as="geometry" />
        </mxCell>
        <mxCell id="l0e_5BZt8I1RR8NedoNN-5" value="" style="rounded=0;whiteSpace=wrap;html=1;" vertex="1" parent="1">
          <mxGeometry x="343" y="290" width="141" height="40" as="geometry" />
        </mxCell>
        <mxCell id="l0e_5BZt8I1RR8NedoNN-6" value="" style="rounded=0;whiteSpace=wrap;html=1;" vertex="1" parent="1">
          <mxGeometry x="343" y="350" width="141" height="40" as="geometry" />
        </mxCell>
        <mxCell id="l0e_5BZt8I1RR8NedoNN-8" value="" style="rounded=0;whiteSpace=wrap;html=1;" vertex="1" parent="1">
          <mxGeometry x="343" y="410" width="141" height="60" as="geometry" />
        </mxCell>
        <mxCell id="l0e_5BZt8I1RR8NedoNN-10" value="" style="rounded=0;whiteSpace=wrap;html=1;" vertex="1" parent="1">
          <mxGeometry x="343" y="480" width="67" height="20" as="geometry" />
        </mxCell>
      </root>
    </mxGraphModel>
  </diagram>
</mxfile>
